<svg xmlns="http://www.w3.org/2000/svg" viewBox="3024 1984 13.333 16">
  <defs>
    <style>
      .cls-1 {
        fill: #29abe2;
      }
    </style>
  </defs>
  <path id="ic_contacts_24px" class="cls-1" d="M14,0H3.333V1.333H14ZM3.333,16H14V14.667H3.333ZM14,2.667H3.333A1.337,1.337,0,0,0,2,4v8a1.337,1.337,0,0,0,1.333,1.333H14A1.337,1.337,0,0,0,15.333,12V4A1.337,1.337,0,0,0,14,2.667ZM8.667,4.5A1.5,1.5,0,1,1,7.167,6,1.5,1.5,0,0,1,8.667,4.5ZM12,11.333H5.333v-1c0-1.113,2.22-1.667,3.333-1.667S12,9.22,12,10.333Z" transform="translate(3022 1984)"/>
</svg>
